<?xml version="1.0" encoding="UTF-8"?>
<svg id="Ebene_1" xmlns="http://www.w3.org/2000/svg" viewBox="0 0 23.82 24.19">
  <path d="M4.84,6c-.7.9-1.3,1.9-2,2.8h2v-2.8ZM10.44,0c-1,0-2,.6-2.7,1.7-.5.8-1.1,1.6-1.6,2.4v4.7h4.6v6.1h-1.3v-4.9h-3.3v3.6c0,.1.1.2.1.3.1.1.1.2.2.2s.2.1.4.1c.3,0,.6,0,.9-.1l.3.9c-.2.1-.5.2-.7.2s-.5.1-.7.1c-.6,0-1.1-.2-1.4-.5s-.4-.8-.4-1.5v-3.1h-2.8c-.5.7-1,1.4-1.5,2.1-.2.3-.4.7-.5,1-.2,1.2.4,2.4,1.6,3.2,3.6,2.3,7.2,4.9,10.4,7.2,1.4,1,3.2.4,4.2-1.2,1.6-2.5,3.4-5.1,5.1-7.4h-2.7v-5.2h-2.1l-1.6,1.8,2.4,3.4h-1.5l-2.2-3.1v3.1h-1.2V6.9h1.2v4.7l2.1-2.5h4.1v4.9h2.2c.4-.6.9-1.2,1.3-1.8.9-1.3.5-2.9-.8-4-.1-.1-.2-.2-.4-.3-3.6-2.3-7.2-4.9-10.4-7.2-.5-.3-1-.5-1.5-.5l.2-.2ZM10.04,6.7c.3,0,.6.3.6.6s-.3.6-.6.6-.6-.3-.6-.6.3-.6.6-.6ZM19.24,6.7c.3,0,.6.3.6.6s-.3.6-.6.6-.6-.3-.6-.6.3-.6.6-.6Z"/>
</svg>